<svg xmlns="http://www.w3.org/2000/svg" width="649" height="89"><g><circle cx="545" cy="586" r="26" fill="#bbb" transform="translate(-420 -560)"/><path d="M125 29l15-13h-30l15 13zm-4.052-1.439l4.052 3.326 3.988-3.326 11.012 9.439h-30l10.948-9.439zm-11.948 8.439v-19l11 9.5-11 9.5zm32 0v-19l-11 9.5 11 9.5z" fill="#fff"/></g><g><title/><g><circle cx="435" cy="26" r="26" fill="#bbb" transform="translate(-210)"/><path d="M223.234 23.719c.849-.852.923-2.034.923-2.699 0-2.66-1.589-6.8-4.657-6.8-.961 0-1.996.481-2.588 1.221-.628.776-.813 1.773-.813 2.734 0 2.476 1.442 6.579 4.62 6.579.924-.001 1.922-.445 2.515-1.035zm-1.073 7.021c-.296-.038-.481-.038-.85-.038-.333 0-2.329.074-3.881.592-.813.296-3.178 1.182-3.178 3.806s2.55 4.508 6.505 4.508c3.548 0 5.433-1.699 5.433-3.99 0-1.885-1.22-2.882-4.029-4.878zm10.839-3.74h-4v-2h4v-4h2v4h4v2h-4v4h-2v-4zm-8.214-12.67c.85.703 2.624 2.18 2.624 4.99 0 2.735-1.552 4.029-3.104 5.248-.48.481-1.035.998-1.035 1.812 0 .813.555 1.257.961 1.589l1.331 1.034c1.627 1.367 3.104 2.625 3.104 5.175 0 3.473-3.363 6.985-9.72 6.985-5.358 0-7.945-2.55-7.945-5.285 0-1.331.665-3.215 2.847-4.509 2.291-1.405 5.396-1.588 7.058-1.7-.517-.666-1.109-1.369-1.109-2.513 0-.628.185-.999.37-1.442-.407.037-.813.075-1.183.075-3.917 0-6.134-2.921-6.134-5.803 0-1.699.776-3.585 2.365-4.953 2.107-1.736 4.62-2.032 6.615-2.032h7.613l-2.365 1.33-2.293-.001z" fill="#fff"/></g></g><g><title/><g><circle cx="325" cy="26" r="26" fill="#bbb"/><path d="M334.579 15.978c-1.048-1.191-2.541-1.95-4.193-1.978-3.172-.053-5.745 2.628-5.745 5.987 0 .477.051.942.149 1.388-4.774-.31-9.007-2.796-11.84-6.543-.494.898-.778 1.948-.778 3.072 0 2.128 1.014 4.017 2.556 5.133-.942-.042-1.827-.327-2.602-.794l-.001.077c0 2.972 1.98 5.466 4.608 6.047-.482.137-.99.208-1.513.205-.37-.002-.73-.044-1.081-.117.731 2.438 2.852 4.216 5.366 4.275-1.966 1.632-4.443 2.604-7.134 2.598-.464-.001-.921-.031-1.37-.089 2.542 1.744 5.562 2.76 8.806 2.761 10.566.003 16.344-9.192 16.344-17.168 0-.262-.006-.522-.017-.781 1.122-.836 2.096-1.885 2.866-3.082-1.03.464-2.137.773-3.299.902 1.186-.73 2.097-1.898 2.526-3.299-1.111.673-2.34 1.156-3.648 1.406z" fill="#fff"/></g></g><g><circle cx="775" cy="26" r="26" fill="#bbb" transform="translate(-350)"/><path d="M417.965 37.98v-15.859h-4.902v15.859h4.902zm0-21.48c-.029-1.419-.975-2.5-2.512-2.5s-2.541 1.081-2.541 2.5c0 1.388.975 2.5 2.482 2.5h.029c1.567 0 2.542-1.112 2.542-2.5zm7.997 21.48v-9.036c0-.484.035-.967.177-1.312.389-.967 1.274-1.967 2.759-1.967 1.946 0 3.167 1.105 3.167 3.279v9.036h4.935v-9.277c0-4.97-2.653-7.282-6.192-7.282-2.901 0-4.175 1.622-4.882 2.726l.035-2.121h-4.926c.071 1.518 0 15.955 0 15.955l4.927-.001z" fill="#fff"/></g><g><circle cx="524" cy="25" r="25" fill="#bbb"/><path d="M536.128 31.185c-.298 1.297-1.36 2.254-2.636 2.396-3.024.338-6.086.34-9.133.338-3.048.002-6.109 0-9.133-.338-1.277-.143-2.338-1.099-2.636-2.396-.425-1.848-.425-3.863-.425-5.765 0-1.902.005-3.918.429-5.766.299-1.297 1.359-2.254 2.636-2.396 3.024-.338 6.086-.34 9.133-.338 3.048-.002 6.109 0 9.133.338 1.277.142 2.338 1.099 2.636 2.396.425 1.848.422 3.864.422 5.766.001 1.901-.002 3.917-.426 5.765z" fill="#fff"/><polygon points="521.164,28.713 521.164,20.919 527.914,24.816" fill="#bbb"/></g><path d="M624 50c13.807 0 25-11.193 25-25s-11.193-25-25-25-25 11.193-25 25 11.193 25 25 25zm-10.38-24.526c-.368-1.064-.531-2.282-.531-3.643 0-2.416.766-3.328 1.795-4.616-.787-2.755.282-4.638.282-4.638s1.654-.337 4.78 1.863c1.694-.713 6.212-.773 8.35-.159 1.311-.852 3.711-2.061 4.679-1.723.262.415.827 1.624.343 4.279.328.583 2.037 1.823 2.043 5.331-.027 1.294-.165 2.386-.419 3.31.048 0-.325 1.145-.413 1.142-1.133 2.446-3.458 3.36-7.215 3.739 1.217.753 1.567 1.698 1.567 4.255s-.035 2.9-.027 3.488c.013.965 1.452 1.427 1.398 1.738-.054.31-1.204.26-1.742.075-1.523-.522-1.371-1.767-1.371-1.767l-.051-3.418s.104-1.84-.588-1.84v5.595c0 1.216.867 1.586.867 2.035 0 .773-1.583-.073-2.071-.555-.743-.733-.658-2.289-.641-3.518.017-1.188-.011-3.785-.011-3.785l-.504.01s.207 5.674-.266 6.708c-.611 1.328-2.457 1.784-2.457 1.18 0-.407.454-.277.706-1.189.215-.775.141-6.56.141-6.56s-.591.343-.591 1.427l-.014 4.171c0 1.061-1.533 1.665-2.269 1.665-.373 0-.837-.018-.837-.212 0-.491 1.401-.778 1.401-1.799 0-.885-.019-3.161-.019-3.161s-.707.119-1.715.119c-2.541 0-3.345-1.593-3.727-2.485-.498-1.161-1.143-1.707-1.829-2.143-.421-.268-.518-.583-.031-.674 2.249-.416 2.824 2.507 4.327 2.973 1.072.332 2.451.189 3.137-.247.09-.893.745-1.665 1.291-2.071-3.821-.361-6.086-1.665-7.261-3.761-.014 0-.553-1.139-.507-1.139z" fill="#bbb"/><path d="M20 79c0 5.52-4.48 10-10 10s-10-4.48-10-10 8.571-15.168 10-20.5c1.429 5.332 10 14.98 10 20.5z" fill="#6687c5"/><path d="M60 79c0 5.52-4.48 10-10 10s-10-4.48-10-10 8.571-15.168 10-20.5c1.429 5.332 10 14.98 10 20.5z" fill="#f05656"/><path d="M100 79c0 5.52-4.48 10-10 10s-10-4.48-10-10 8.571-15.168 10-20.5c1.429 5.332 10 14.98 10 20.5z" fill="#e48430"/><path d="M140 79c0 5.52-4.48 10-10 10s-10-4.48-10-10 8.571-15.168 10-20.5c1.429 5.332 10 14.98 10 20.5z" fill="#82b13f"/><path d="M180 79c0 5.52-4.48 10-10 10s-10-4.48-10-10 8.571-15.168 10-20.5c1.429 5.332 10 14.98 10 20.5z" fill="#8d8884"/></svg>