<?xml version="1.0" encoding="utf-8"?>
<!-- Generator: Adobe Illustrator 17.0.1, SVG Export Plug-In . SVG Version: 6.00 Build 0)  -->
<!DOCTYPE svg PUBLIC "-//W3C//DTD SVG 1.1//EN" "http://www.w3.org/Graphics/SVG/1.1/DTD/svg11.dtd">
<svg version="1.1" id="svgLogo" xmlns="http://www.w3.org/2000/svg" xmlns:xlink="http://www.w3.org/1999/xlink" x="0px" y="0px"
	 width="636.5px" height="119.942px" viewBox="0 42.785 636.5 119.942" enable-background="new 0 42.785 636.5 119.942"
	 xml:space="preserve">
<g>
	<path fill="#84B040" d="M0,113.846V45.051h24.476c7.688,0,13.609,1.862,17.62,5.421c4.096,3.581,6.16,8.882,6.16,15.758
		c0,6.908-2.048,12.195-6.144,15.858c-4.097,3.665-9.989,5.495-17.678,5.495H7.454v26.263H0z M7.454,80.404H23.52
		c3.659,0,6.706-0.395,9.141-1.187c2.434-0.792,4.206-1.945,5.314-3.463c1.106-1.517,1.864-3,2.266-4.447
		c0.403-1.447,0.605-3.134,0.605-5.054c0-1.919-0.202-3.606-0.605-5.053c-0.403-1.447-1.16-2.939-2.266-4.472
		c-1.108-1.533-2.879-2.696-5.314-3.488c-2.435-0.792-5.482-1.187-9.141-1.187H7.454V80.404z"/>
	<path fill="#84B040" d="M56.204,98.032c0-2.314,0.43-4.388,1.284-6.221c0.855-1.833,1.905-3.321,3.147-4.461
		c1.241-1.14,2.821-2.117,4.735-2.925c1.914-0.81,3.609-1.404,5.087-1.784c1.477-0.381,3.231-0.67,5.263-0.868
		c2.031-0.197,3.477-0.314,4.33-0.347c0.856-0.033,1.871-0.05,3.047-0.05l8.26,0.492c0-4.671-1.265-8.005-3.794-10.001
		c-2.533-1.996-6.276-2.992-11.237-2.992c-5.571,0-10.588,0.824-15.05,2.47v-7.201c5.067-1.779,10.22-2.669,15.453-2.669
		c7.21,0,12.749,1.862,16.474,5.464c3.724,3.601,5.684,9.025,5.73,15.99v15.461c0,3.291-0.764,6.103-2.289,8.452
		c-1.526,2.333-3.49,4.021-5.885,5.061c-2.4,1.041-4.646,1.76-6.741,2.166s-4.167,0.605-6.211,0.573
		c-1.582,0-3.202-0.099-4.865-0.302c-1.663-0.204-3.547-0.666-5.646-1.391c-2.102-0.724-3.925-1.649-5.47-2.778
		c-1.547-1.126-2.865-2.745-3.958-4.849c-1.117-2.076-1.713-4.511-1.713-7.289L56.204,98.032L56.204,98.032z M63.659,98.032
		c0,6.447,4.727,9.598,14.039,9.62c0.033,0,0.143,0,0.143,0c9.115,0,13.674-3.106,13.674-9.319v-9.87
		c-2.279-0.403-5.329-0.606-9.149-0.606c-12.49,0.06-18.76,3.355-18.76,10.176L63.659,98.032L63.659,98.032z"/>
	<path fill="#84B040" d="M106.768,69.174v-6.799h8.966V47.82h7.453v14.555h13.294v6.799h-13.294v31.375
		c0,2.578,0.573,4.441,1.576,5.587c1.09,1.003,3.008,1.576,5.73,1.586c2.116,0,4.08-0.403,5.891-1.209v7.001
		c-2.182,0.807-4.365,1.209-6.545,1.146c-0.1,0-0.185,0-0.253,0c-1.377,0-2.718-0.149-4.03-0.451
		c-1.312-0.302-2.788-0.898-4.432-1.788c-1.644-0.89-2.971-2.384-3.978-4.483c-1.007-2.1-1.512-4.692-1.512-7.783V69.174H106.768z"
		/>
	<path fill="#84B040" d="M147.613,113.846V66.435c7.756-3.243,16.083-4.865,24.981-4.865v7.001
		c-5.626,0.137-11.468,1.027-17.524,2.722v42.553L147.613,113.846L147.613,113.846z"/>
	<path fill="#84B040" d="M183.471,113.846h7.452V62.375h-7.452V113.846z"/>
	<path fill="#84B040" d="M203.969,88.01c0-5.226,0.726-9.676,2.179-13.346c1.456-3.67,3.42-6.409,5.892-8.217
		c2.477-1.811,5.005-3.09,7.591-3.846c2.587-0.752,5.422-1.132,8.511-1.132c5.17,0,10.314,1.003,15.328,2.871v7.002
		c-4.669-1.914-9.486-2.871-14.456-2.871c-6.111,0-10.559,1.549-13.344,4.644c-2.788,3.097-4.18,8.061-4.18,14.899
		c0,6.876,1.432,11.89,4.154,15.022c2.787,3.008,7.163,4.584,13.323,4.62c5.17,0,9.991-0.99,14.456-2.971v7.201
		c-4.803,1.846-9.889,2.771-15.259,2.771c-2.418,0-4.676-0.202-6.775-0.605c-2.099-0.404-4.248-1.212-6.447-2.421
		c-2.198-1.213-4.077-2.769-5.63-4.669c-1.555-1.898-2.831-4.464-3.828-7.696c-1.018-3.184-1.491-7.052-1.491-11.257L203.969,88.01
		L203.969,88.01z"/>
	<path fill="#84B040" d="M254.533,113.846V42.785h7.454v44.873l23.117-25.283h10.074l-21.959,23.62l24.779,27.852h-9.922
		l-19.692-22.613l-6.396,6.951v15.662L254.533,113.846L254.533,113.846z"/>
	<path fill="#8E8885" d="M325.848,79.397c0-23.502,10.632-35.253,31.901-35.253c7.612,0,14.755,1.432,21.631,4.269v7.181
		c-6.676-2.967-13.621-4.45-20.83-4.45c-8.72,0-15.109,2.275-19.166,6.824c-4.057,4.548-6.086,11.692-6.086,21.488
		c0,9.741,2.005,16.904,6.017,21.481c4.011,4.577,10.446,6.733,19.196,6.773c5.498,0,10.747-0.825,15.744-2.478V83.628h-16.569
		v-7.201h24.025v32.963c-7.415,3.508-15.418,5.263-24.004,5.263c-21.227,0.053-31.873-11.694-31.873-35.255H325.848z"/>
	<path fill="#8E8885" d="M396.911,113.846V66.435c7.756-3.243,16.083-4.865,24.981-4.865v7.001
		c-5.627,0.137-11.469,1.027-17.524,2.722v42.553L396.911,113.846L396.911,113.846z"/>
	<path fill="#8E8885" d="M429.142,88.765c0-0.069,0-0.186,0-0.352c0-0.167,0-0.302,0-0.403c0-17.696,7.512-26.54,22.536-26.54
		c3.136,0,6.017,0.43,8.595,1.485c2.554,1.003,4.584,2.149,6.017,3.5c1.5,1.289,2.865,3.151,4.011,5.3
		c1.133,2.149,2.005,4.011,2.435,5.515c0.484,1.576,0.859,3.295,1.146,5.489c0.266,2.149,0.43,3.438,0.43,3.928v2.216l-0.201,3.581
		H436.69c0.47,5.157,2.005,8.882,4.727,11.255c2.692,2.292,6.733,3.438,11.89,3.498c7.459,0,13.333-1.276,17.616-3.828v7.655
		c-4.955,2.384-10.957,3.576-18.018,3.576c-0.099,0-0.205,0-0.305,0c-3.011,0-5.772-0.361-8.282-1.083
		c-2.513-0.722-4.981-1.973-7.406-3.752c-2.427-1.779-4.326-4.455-5.7-8.031c-1.384-3.546-2.09-7.843-2.09-13.012L429.142,88.765
		L429.142,88.765z M436.595,85.894h30.169c0-1.173-0.145-2.483-0.431-3.926c-0.285-1.443-0.858-3.301-1.715-5.567
		s-2.404-4.153-4.639-5.664c-2.239-1.513-5.002-2.266-8.299-2.266c-5.112,0-8.818,1.327-11.125,3.977
		c-2.303,2.72-3.555,7.161-3.985,13.447H436.595z"/>
	<path fill="#8E8885" d="M480.663,62.375h7.958l14.654,40.743l14.857-40.743h7.959l-21.051,56.442
		c-3.66,9.905-9.065,14.857-16.217,14.857c-1.643,0-3.255-0.302-4.835-0.907v-6.799c1.377,0.573,2.865,0.859,4.441,0.859
		c1.308,0,2.6-0.479,3.877-1.435c1.278-0.957,2.325-2.107,3.147-3.45c0.823-1.342,1.58-2.703,2.266-4.08
		c0.688-1.377,1.166-2.551,1.435-3.525l0.506-1.41L480.663,62.375z"/>
	<path id="path6525" sodipodi:nodetypes="csscc" inkscape:connector-curvature="0" fill="#F05656" d="M569.34,150.849
		c0,4.625-3.753,8.378-8.378,8.378s-8.378-3.753-8.378-8.378s7.181-12.708,8.378-17.175
		C562.159,138.141,569.34,146.224,569.34,150.849z"/>
	<path id="path6525_1_" sodipodi:nodetypes="csscc" inkscape:connector-curvature="0" fill="#F18021" d="M590.95,150.849
		c0,4.625-3.753,8.378-8.378,8.378s-8.378-3.753-8.378-8.378s7.181-12.708,8.378-17.175
		C583.769,138.141,590.95,146.224,590.95,150.849z"/>
	<path id="path6525_2_" sodipodi:nodetypes="csscc" inkscape:connector-curvature="0" fill="#8E8885" d="M612.56,150.849
		c0,4.625-3.753,8.378-8.378,8.378s-8.378-3.753-8.378-8.378s7.181-12.708,8.378-17.175
		C605.379,138.141,612.56,146.224,612.56,150.849z"/>
	<path id="path6525_3_" sodipodi:nodetypes="csscc" inkscape:connector-curvature="0" fill="#6687C5" d="M634.17,150.849
		c0,4.625-3.753,8.378-8.378,8.378s-8.378-3.753-8.378-8.378s7.181-12.708,8.378-17.175
		C626.989,138.141,634.17,146.224,634.17,150.849z"/>
</g>
</svg>
