<svg xmlns="http://www.w3.org/2000/svg" version="1.1" x="0" y="0" width="636.5" height="119.94" viewBox="0 0 636.5 119.942" enable-background="new 0 42.785 636.5 119.942" xml:space="preserve"><path fill="#84B040" d="M0 113.85V45.05h24.48c7.69 0 13.61 1.86 17.62 5.42 4.1 3.58 6.16 8.88 6.16 15.76 0 6.91-2.05 12.2-6.14 15.86 -4.1 3.67-9.99 5.5-17.68 5.5H7.45v26.26H0zM7.45 80.4H23.52c3.66 0 6.71-0.39 9.14-1.19 2.43-0.79 4.21-1.94 5.31-3.46 1.11-1.52 1.86-3 2.27-4.45 0.4-1.45 0.61-3.13 0.61-5.05 0-1.92-0.2-3.61-0.6-5.05 -0.4-1.45-1.16-2.94-2.27-4.47 -1.11-1.53-2.88-2.7-5.31-3.49 -2.43-0.79-5.48-1.19-9.14-1.19H7.45V80.4z"/><path fill="#84B040" d="M56.2 98.03c0-2.31 0.43-4.39 1.28-6.22 0.86-1.83 1.91-3.32 3.15-4.46 1.24-1.14 2.82-2.12 4.74-2.92 1.91-0.81 3.61-1.4 5.09-1.78 1.48-0.38 3.23-0.67 5.26-0.87 2.03-0.2 3.48-0.31 4.33-0.35 0.86-0.03 1.87-0.05 3.05-0.05l8.26 0.49c0-4.67-1.26-8.01-3.79-10 -2.53-2-6.28-2.99-11.24-2.99 -5.57 0-10.59 0.82-15.05 2.47v-7.2c5.07-1.78 10.22-2.67 15.45-2.67 7.21 0 12.75 1.86 16.47 5.46 3.72 3.6 5.68 9.03 5.73 15.99v15.46c0 3.29-0.76 6.1-2.29 8.45 -1.53 2.33-3.49 4.02-5.88 5.06 -2.4 1.04-4.65 1.76-6.74 2.17s-4.17 0.61-6.21 0.57c-1.58 0-3.2-0.1-4.86-0.3 -1.66-0.2-3.55-0.67-5.65-1.39 -2.1-0.72-3.92-1.65-5.47-2.78 -1.55-1.13-2.86-2.74-3.96-4.85 -1.12-2.08-1.71-4.51-1.71-7.29L56.2 98.03 56.2 98.03zM63.66 98.03c0 6.45 4.73 9.6 14.04 9.62 0.03 0 0.14 0 0.14 0 9.12 0 13.67-3.11 13.67-9.32v-9.87c-2.28-0.4-5.33-0.61-9.15-0.61 -12.49 0.06-18.76 3.36-18.76 10.18L63.66 98.03 63.66 98.03z"/><path fill="#84B040" d="M106.77 69.17v-6.8h8.97V47.82h7.45v14.56h13.29v6.8h-13.29v31.38c0 2.58 0.57 4.44 1.58 5.59 1.09 1 3.01 1.58 5.73 1.59 2.12 0 4.08-0.4 5.89-1.21v7c-2.18 0.81-4.36 1.21-6.54 1.15 -0.1 0-0.18 0-0.25 0 -1.38 0-2.72-0.15-4.03-0.45 -1.31-0.3-2.79-0.9-4.43-1.79 -1.64-0.89-2.97-2.38-3.98-4.48 -1.01-2.1-1.51-4.69-1.51-7.78V69.17H106.77z"/><path fill="#84B040" d="M147.61 113.85V66.44c7.76-3.24 16.08-4.86 24.98-4.86v7c-5.63 0.14-11.47 1.03-17.52 2.72v42.55L147.61 113.85 147.61 113.85z"/><path fill="#84B040" d="M183.47 113.85h7.45V62.38h-7.45V113.85z"/><path fill="#84B040" d="M203.97 88.01c0-5.23 0.73-9.68 2.18-13.35 1.46-3.67 3.42-6.41 5.89-8.22 2.48-1.81 5.01-3.09 7.59-3.85 2.59-0.75 5.42-1.13 8.51-1.13 5.17 0 10.31 1 15.33 2.87v7c-4.67-1.91-9.49-2.87-14.46-2.87 -6.11 0-10.56 1.55-13.34 4.64 -2.79 3.1-4.18 8.06-4.18 14.9 0 6.88 1.43 11.89 4.15 15.02 2.79 3.01 7.16 4.58 13.32 4.62 5.17 0 9.99-0.99 14.46-2.97v7.2c-4.8 1.85-9.89 2.77-15.26 2.77 -2.42 0-4.68-0.2-6.77-0.6 -2.1-0.4-4.25-1.21-6.45-2.42 -2.2-1.21-4.08-2.77-5.63-4.67 -1.55-1.9-2.83-4.46-3.83-7.7 -1.02-3.18-1.49-7.05-1.49-11.26L203.97 88.01 203.97 88.01z"/><path fill="#84B040" d="M254.53 113.85V42.79h7.45v44.87l23.12-25.28h10.07l-21.96 23.62 24.78 27.85h-9.92l-19.69-22.61 -6.4 6.95v15.66L254.53 113.85 254.53 113.85z"/><path fill="#8E8885" d="M325.85 79.4c0-23.5 10.63-35.25 31.9-35.25 7.61 0 14.76 1.43 21.63 4.27v7.18c-6.68-2.97-13.62-4.45-20.83-4.45 -8.72 0-15.11 2.28-19.17 6.82 -4.06 4.55-6.09 11.69-6.09 21.49 0 9.74 2.01 16.9 6.02 21.48 4.01 4.58 10.45 6.73 19.2 6.77 5.5 0 10.75-0.82 15.74-2.48V83.63h-16.57v-7.2h24.03v32.96c-7.41 3.51-15.42 5.26-24 5.26 -21.23 0.05-31.87-11.69-31.87-35.26H325.85z"/><path fill="#8E8885" d="M396.91 113.85V66.44c7.76-3.24 16.08-4.86 24.98-4.86v7c-5.63 0.14-11.47 1.03-17.52 2.72v42.55L396.91 113.85 396.91 113.85z"/><path fill="#8E8885" d="M429.14 88.77c0-0.07 0-0.19 0-0.35 0-0.17 0-0.3 0-0.4 0-17.7 7.51-26.54 22.54-26.54 3.14 0 6.02 0.43 8.6 1.49 2.55 1 4.58 2.15 6.02 3.5 1.5 1.29 2.87 3.15 4.01 5.3 1.13 2.15 2.01 4.01 2.44 5.52 0.48 1.58 0.86 3.3 1.15 5.49 0.27 2.15 0.43 3.44 0.43 3.93v2.22l-0.2 3.58H436.69c0.47 5.16 2.01 8.88 4.73 11.26 2.69 2.29 6.73 3.44 11.89 3.5 7.46 0 13.33-1.28 17.62-3.83v7.66c-4.95 2.38-10.96 3.58-18.02 3.58 -0.1 0-0.2 0-0.3 0 -3.01 0-5.77-0.36-8.28-1.08 -2.51-0.72-4.98-1.97-7.41-3.75 -2.43-1.78-4.33-4.45-5.7-8.03 -1.38-3.55-2.09-7.84-2.09-13.01L429.14 88.77 429.14 88.77zM436.6 85.89h30.17c0-1.17-0.14-2.48-0.43-3.93 -0.28-1.44-0.86-3.3-1.71-5.57s-2.4-4.15-4.64-5.66c-2.24-1.51-5-2.27-8.3-2.27 -5.11 0-8.82 1.33-11.12 3.98 -2.3 2.72-3.55 7.16-3.98 13.45H436.6z"/><path fill="#8E8885" d="M480.66 62.38h7.96l14.65 40.74 14.86-40.74h7.96l-21.05 56.44c-3.66 9.9-9.06 14.86-16.22 14.86 -1.64 0-3.25-0.3-4.83-0.91v-6.8c1.38 0.57 2.87 0.86 4.44 0.86 1.31 0 2.6-0.48 3.88-1.43 1.28-0.96 2.33-2.11 3.15-3.45 0.82-1.34 1.58-2.7 2.27-4.08 0.69-1.38 1.17-2.55 1.44-3.52l0.51-1.41L480.66 62.38z"/></svg>