<?xml version="1.0" encoding="UTF-8" standalone="no"?>
<!-- Created with Inkscape (http://www.inkscape.org/) -->
<?xml-stylesheet type="text/css" href="../../css/main.css" ?>
<svg
   xmlns:dc="http://purl.org/dc/elements/1.1/"
   xmlns:cc="http://creativecommons.org/ns#"
   xmlns:rdf="http://www.w3.org/1999/02/22-rdf-syntax-ns#"
   xmlns:svg="http://www.w3.org/2000/svg"
   xmlns="http://www.w3.org/2000/svg"
   version="1.1"
   preserveAspectRatio="xMinYMin meet"
   viewBox="0 42.785 636.5 119.942"
   id="svgLogo"
   xml:space="preserve"><metadata
   id="metadata3053"><rdf:RDF><cc:Work
       rdf:about=""><dc:format>image/svg+xml</dc:format><dc:type
         rdf:resource="http://purl.org/dc/dcmitype/StillImage" /><dc:title></dc:title></cc:Work></rdf:RDF></metadata><defs
   id="defs3051" />

<style>

</style>
<g
   id="g3021">
	<path
   d="M 0,113.846 V 45.051 h 24.476 c 7.688,0 13.609,1.862 17.62,5.421 4.096,3.581 6.16,8.882 6.16,15.758 0,6.908 -2.048,12.195 -6.144,15.858 -4.097,3.665 -9.989,5.495 -17.678,5.495 H 7.454 v 26.263 H 0 z M 7.454,80.404 H 23.52 c 3.659,0 6.706,-0.395 9.141,-1.187 2.434,-0.792 4.206,-1.945 5.314,-3.463 1.106,-1.517 1.864,-3 2.266,-4.447 0.403,-1.447 0.605,-3.134 0.605,-5.054 0,-1.919 -0.202,-3.606 -0.605,-5.053 -0.403,-1.447 -1.16,-2.939 -2.266,-4.472 C 36.867,55.195 35.096,54.032 32.661,53.24 30.226,52.448 27.179,52.053 23.52,52.053 H 7.454 v 28.351 z"
   id="path3023"
   style="fill:#84b040" />
	<path
   d="m 56.204,98.032 c 0,-2.314 0.43,-4.388 1.284,-6.221 0.855,-1.833 1.905,-3.321 3.147,-4.461 1.241,-1.14 2.821,-2.117 4.735,-2.925 1.914,-0.81 3.609,-1.404 5.087,-1.784 1.477,-0.381 3.231,-0.67 5.263,-0.868 2.031,-0.197 3.477,-0.314 4.33,-0.347 0.856,-0.033 1.871,-0.05 3.047,-0.05 l 8.26,0.492 c 0,-4.671 -1.265,-8.005 -3.794,-10.001 -2.533,-1.996 -6.276,-2.992 -11.237,-2.992 -5.571,0 -10.588,0.824 -15.05,2.47 v -7.201 c 5.067,-1.779 10.22,-2.669 15.453,-2.669 7.21,0 12.749,1.862 16.474,5.464 3.724,3.601 5.684,9.025 5.73,15.99 V 98.39 c 0,3.291 -0.764,6.103 -2.289,8.452 -1.526,2.333 -3.49,4.021 -5.885,5.061 -2.4,1.041 -4.646,1.76 -6.741,2.166 -2.095,0.406 -4.167,0.605 -6.211,0.573 -1.582,0 -3.202,-0.099 -4.865,-0.302 -1.663,-0.204 -3.547,-0.666 -5.646,-1.391 -2.102,-0.724 -3.925,-1.649 -5.47,-2.778 -1.547,-1.126 -2.865,-2.745 -3.958,-4.849 -1.117,-2.076 -1.713,-4.511 -1.713,-7.289 l 0.049,-0.001 0,0 z m 7.455,0 c 0,6.447 4.727,9.598 14.039,9.62 0.033,0 0.143,0 0.143,0 9.115,0 13.674,-3.106 13.674,-9.319 v -9.87 c -2.279,-0.403 -5.329,-0.606 -9.149,-0.606 -12.49,0.06 -18.76,3.355 -18.76,10.176 l 0.053,-0.001 0,0 z"
   id="path3025"
   style="fill:#84b040" />
	<path
   d="m 106.768,69.174 v -6.799 h 8.966 V 47.82 h 7.453 v 14.555 h 13.294 v 6.799 h -13.294 v 31.375 c 0,2.578 0.573,4.441 1.576,5.587 1.09,1.003 3.008,1.576 5.73,1.586 2.116,0 4.08,-0.403 5.891,-1.209 v 7.001 c -2.182,0.807 -4.365,1.209 -6.545,1.146 -0.1,0 -0.185,0 -0.253,0 -1.377,0 -2.718,-0.149 -4.03,-0.451 -1.312,-0.302 -2.788,-0.898 -4.432,-1.788 -1.644,-0.89 -2.971,-2.384 -3.978,-4.483 -1.007,-2.1 -1.512,-4.692 -1.512,-7.783 V 69.174 h -8.866 z"
   id="path3027"
   style="fill:#84b040" />
	<path
   d="M 147.613,113.846 V 66.435 c 7.756,-3.243 16.083,-4.865 24.981,-4.865 v 7.001 c -5.626,0.137 -11.468,1.027 -17.524,2.722 v 42.553 l -7.457,0 0,0 z"
   id="path3029"
   style="fill:#84b040" />
	<path
   d="m 183.471,113.846 h 7.452 V 62.375 h -7.452 v 51.471 z"
   id="path3031"
   style="fill:#84b040" />
	<path
   d="m 203.969,88.01 c 0,-5.226 0.726,-9.676 2.179,-13.346 1.456,-3.67 3.42,-6.409 5.892,-8.217 2.477,-1.811 5.005,-3.09 7.591,-3.846 2.587,-0.752 5.422,-1.132 8.511,-1.132 5.17,0 10.314,1.003 15.328,2.871 v 7.002 c -4.669,-1.914 -9.486,-2.871 -14.456,-2.871 -6.111,0 -10.559,1.549 -13.344,4.644 -2.788,3.097 -4.18,8.061 -4.18,14.899 0,6.876 1.432,11.89 4.154,15.022 2.787,3.008 7.163,4.584 13.323,4.62 5.17,0 9.991,-0.99 14.456,-2.971 v 7.201 c -4.803,1.846 -9.889,2.771 -15.259,2.771 -2.418,0 -4.676,-0.202 -6.775,-0.605 -2.099,-0.404 -4.248,-1.212 -6.447,-2.421 -2.198,-1.213 -4.077,-2.769 -5.63,-4.669 -1.555,-1.898 -2.831,-4.464 -3.828,-7.696 -1.018,-3.184 -1.491,-7.052 -1.491,-11.257 l -0.024,0.001 0,0 z"
   id="path3033"
   style="fill:#84b040" />
	<path
   d="M 254.533,113.846 V 42.785 h 7.454 v 44.873 l 23.117,-25.283 h 10.074 l -21.959,23.62 24.779,27.852 h -9.922 l -19.692,-22.613 -6.396,6.951 v 15.662 l -7.455,-10e-4 0,0 z"
   id="path3035"
   style="fill:#84b040" />
	<path
   d="m 325.848,79.397 c 0,-23.502 10.632,-35.253 31.901,-35.253 7.612,0 14.755,1.432 21.631,4.269 v 7.181 c -6.676,-2.967 -13.621,-4.45 -20.83,-4.45 -8.72,0 -15.109,2.275 -19.166,6.824 -4.057,4.548 -6.086,11.692 -6.086,21.488 0,9.741 2.005,16.904 6.017,21.481 4.011,4.577 10.446,6.733 19.196,6.773 5.498,0 10.747,-0.825 15.744,-2.478 V 83.628 h -16.569 v -7.201 h 24.025 v 32.963 c -7.415,3.508 -15.418,5.263 -24.004,5.263 -21.227,0.053 -31.873,-11.694 -31.873,-35.255 h 0.014 z"
   id="path3037"
   style="fill:#8e8885" />
	<path
   d="M 396.911,113.846 V 66.435 c 7.756,-3.243 16.083,-4.865 24.981,-4.865 v 7.001 c -5.627,0.137 -11.469,1.027 -17.524,2.722 v 42.553 l -7.457,0 0,0 z"
   id="path3039"
   style="fill:#8e8885" />
	<path
   d="m 429.142,88.765 c 0,-0.069 0,-0.186 0,-0.352 0,-0.167 0,-0.302 0,-0.403 0,-17.696 7.512,-26.54 22.536,-26.54 3.136,0 6.017,0.43 8.595,1.485 2.554,1.003 4.584,2.149 6.017,3.5 1.5,1.289 2.865,3.151 4.011,5.3 1.133,2.149 2.005,4.011 2.435,5.515 0.484,1.576 0.859,3.295 1.146,5.489 0.266,2.149 0.43,3.438 0.43,3.928 v 2.216 l -0.201,3.581 H 436.69 c 0.47,5.157 2.005,8.882 4.727,11.255 2.692,2.292 6.733,3.438 11.89,3.498 7.459,0 13.333,-1.276 17.616,-3.828 v 7.655 c -4.955,2.384 -10.957,3.576 -18.018,3.576 -0.099,0 -0.205,0 -0.305,0 -3.011,0 -5.772,-0.361 -8.282,-1.083 -2.513,-0.722 -4.981,-1.973 -7.406,-3.752 -2.427,-1.779 -4.326,-4.455 -5.7,-8.031 -1.384,-3.546 -2.09,-7.843 -2.09,-13.012 l 0.02,0.003 0,0 z m 7.453,-2.871 h 30.169 c 0,-1.173 -0.145,-2.483 -0.431,-3.926 -0.285,-1.443 -0.858,-3.301 -1.715,-5.567 -0.857,-2.266 -2.404,-4.153 -4.639,-5.664 -2.239,-1.513 -5.002,-2.266 -8.299,-2.266 -5.112,0 -8.818,1.327 -11.125,3.977 -2.303,2.72 -3.555,7.161 -3.985,13.447 h 0.025 z"
   id="path3041"
   style="fill:#8e8885" />
	<path
   d="m 480.663,62.375 h 7.958 l 14.654,40.743 14.857,-40.743 h 7.959 l -21.051,56.442 c -3.66,9.905 -9.065,14.857 -16.217,14.857 -1.643,0 -3.255,-0.302 -4.835,-0.907 v -6.799 c 1.377,0.573 2.865,0.859 4.441,0.859 1.308,0 2.6,-0.479 3.877,-1.435 1.278,-0.957 2.325,-2.107 3.147,-3.45 0.823,-1.342 1.58,-2.703 2.266,-4.08 0.688,-1.377 1.166,-2.551 1.435,-3.525 l 0.506,-1.41 -18.997,-50.552 z"
   id="path3043"
   style="fill:#8e8885" />
	<path
   d="m 569.34,150.849 c 0,4.625 -3.753,8.378 -8.378,8.378 -4.625,0 -8.378,-3.753 -8.378,-8.378 0,-4.625 7.181,-12.708 8.378,-17.175 1.197,4.467 8.378,12.55 8.378,17.175 z"
   id="logo-drops-1"
   style="fill:#f05656" />
	<path
   d="m 590.95,150.849 c 0,4.625 -3.753,8.378 -8.378,8.378 -4.625,0 -8.378,-3.753 -8.378,-8.378 0,-4.625 7.181,-12.708 8.378,-17.175 1.197,4.467 8.378,12.55 8.378,17.175 z"
   id="logo-drops-2"
   style="fill:#f18021" />
	<path
   d="m 612.56,150.849 c 0,4.625 -3.753,8.378 -8.378,8.378 -4.625,0 -8.378,-3.753 -8.378,-8.378 0,-4.625 7.181,-12.708 8.378,-17.175 1.197,4.467 8.378,12.55 8.378,17.175 z"
   id="logo-drops-3"
   style="fill:#8e8885" />
	<path
   d="m 634.17,150.849 c 0,4.625 -3.753,8.378 -8.378,8.378 -4.625,0 -8.378,-3.753 -8.378,-8.378 0,-4.625 7.181,-12.708 8.378,-17.175 1.197,4.467 8.378,12.55 8.378,17.175 z"
   id="logo-drops-4"
   style="fill:#6687c5" />
</g>
</svg>